<?xml version="1.0" encoding="utf-8"?>
<!-- Generator: Adobe Illustrator 16.0.0, SVG Export Plug-In . SVG Version: 6.00 Build 0)  -->
<!DOCTYPE svg PUBLIC "-//W3C//DTD SVG 1.0//EN" "http://www.w3.org/TR/2001/REC-SVG-20010904/DTD/svg10.dtd">
<svg version="1.0" id="Layer_1" xmlns="http://www.w3.org/2000/svg" xmlns:xlink="http://www.w3.org/1999/xlink" x="0px" y="0px"
	 width="30px" height="30px" viewBox="0 0 30 30" enable-background="new 0 0 30 30" xml:space="preserve">
<g enable-background="new    ">
	<path fill="none" stroke="#0000FF" stroke-width="0.1" d="M8.382,23.35c0.9,0.541,2.952,1.439,5.184,1.439
		c4.032,0,5.327-2.557,5.292-4.535c-0.034-3.275-2.986-4.68-6.045-4.68h-1.764v-2.375h1.764c2.304,0,5.217-1.188,5.217-3.96
		c0-1.872-1.188-3.527-4.104-3.527c-1.872,0-3.671,0.828-4.679,1.548L8.382,4.956c1.26-0.9,3.636-1.8,6.155-1.8
		c4.607,0,6.695,2.736,6.695,5.579c0,2.448-1.477,4.5-4.318,5.544v0.071c2.879,0.54,5.219,2.7,5.219,5.976
		c0,3.742-2.951,7.02-8.531,7.02c-2.628,0-4.932-0.828-6.083-1.584L8.382,23.35z"/>
</g>
</svg>
