<?xml version="1.0" encoding="utf-8"?>
<!-- Generator: Adobe Illustrator 16.0.0, SVG Export Plug-In . SVG Version: 6.00 Build 0)  -->
<!DOCTYPE svg PUBLIC "-//W3C//DTD SVG 1.0//EN" "http://www.w3.org/TR/2001/REC-SVG-20010904/DTD/svg10.dtd">
<svg version="1.0" id="Layer_1" xmlns="http://www.w3.org/2000/svg" xmlns:xlink="http://www.w3.org/1999/xlink" x="0px" y="0px"
	 width="30px" height="30px" viewBox="0 0 30 30" enable-background="new 0 0 30 30" xml:space="preserve">
<g enable-background="new    ">
	<path fill="none" stroke="#0000FF" stroke-width="0.1" d="M21.593,6.216h-8.927l-0.9,6.012c0.54-0.072,1.044-0.145,1.908-0.145
		c1.836,0,3.6,0.396,5.039,1.26c1.836,1.008,3.348,3.06,3.348,6.013c0,4.57-3.635,7.99-8.708,7.99c-2.556,0-4.68-0.721-5.832-1.438
		l0.792-2.411c0.972,0.573,2.88,1.295,5.04,1.295c2.954,0,5.542-1.94,5.504-5.108c0-2.988-2.051-5.146-6.692-5.146
		c-1.368,0-2.412,0.107-3.275,0.252L10.4,3.554h11.194L21.593,6.216L21.593,6.216z"/>
</g>
</svg>
