<?xml version="1.0" encoding="utf-8"?>
<!-- Generator: Adobe Illustrator 16.0.0, SVG Export Plug-In . SVG Version: 6.00 Build 0)  -->
<!DOCTYPE svg PUBLIC "-//W3C//DTD SVG 1.0//EN" "http://www.w3.org/TR/2001/REC-SVG-20010904/DTD/svg10.dtd">
<svg version="1.0" id="Layer_1" xmlns="http://www.w3.org/2000/svg" xmlns:xlink="http://www.w3.org/1999/xlink" x="0px" y="0px"
	 width="30px" height="30px" viewBox="0 0 30 30" enable-background="new 0 0 30 30" xml:space="preserve">
<g enable-background="new    ">
	<path fill="none" stroke="#0000FF" stroke-width="0.1" d="M20.98,5.784c-0.647-0.036-1.477,0.036-2.375,0.18
		c-5.003,0.792-7.597,4.392-8.135,8.279h0.072c1.116-1.512,3.095-2.736,5.687-2.736c4.142,0,7.057,3.024,7.057,7.56
		c0,4.318-2.915,8.277-7.811,8.277c-4.967,0-8.243-3.887-8.243-9.971c0-4.607,1.62-8.243,3.96-10.546
		c1.943-1.908,4.536-3.096,7.487-3.456c0.938-0.144,1.729-0.18,2.305-0.18v2.593H20.98z M15.545,24.896
		c2.7,0,4.536-2.269,4.536-5.614c0-3.347-1.907-5.363-4.823-5.363c-1.908,0-3.708,1.151-4.572,2.88
		c-0.18,0.359-0.324,0.792-0.324,1.367c0.036,3.852,1.836,6.73,5.147,6.73H15.545z"/>
</g>
</svg>
