<?xml version="1.0" encoding="utf-8"?>
<!-- Generator: Adobe Illustrator 16.0.0, SVG Export Plug-In . SVG Version: 6.00 Build 0)  -->
<!DOCTYPE svg PUBLIC "-//W3C//DTD SVG 1.0//EN" "http://www.w3.org/TR/2001/REC-SVG-20010904/DTD/svg10.dtd">
<svg version="1.0" id="Layer_1" xmlns="http://www.w3.org/2000/svg" xmlns:xlink="http://www.w3.org/1999/xlink" x="0px" y="0px"
	 width="30px" height="30px" viewBox="0 0 30 30" enable-background="new 0 0 30 30" xml:space="preserve">
<g enable-background="new    ">
	<path fill="none" stroke="#0000FF" stroke-width="0.1" d="M15.474,3.156c4.536,0,6.838,2.808,6.838,5.759
		c0,1.979-1.008,4.139-3.888,5.471v0.108c2.915,1.15,4.716,3.238,4.716,6.047c0,4.104-3.492,6.803-7.956,6.803
		c-4.895,0-7.847-2.879-7.847-6.299c0-2.951,1.764-5.074,4.607-6.299v-0.108c-2.628-1.224-3.744-3.239-3.744-5.255
		c0-3.708,3.131-6.227,7.235-6.227H15.474z M15.258,25.041c2.844,0,4.68-1.764,4.68-4.175c0-2.808-1.979-4.212-5.146-5.111
		c-2.735,0.792-4.211,2.627-4.211,4.859c-0.108,2.34,1.692,4.427,4.644,4.427H15.258z M15.293,5.424
		c-2.627,0-4.067,1.728-4.067,3.744c-0.036,2.34,1.764,3.599,4.463,4.32c2.016-0.685,3.562-2.124,3.562-4.248
		c0-1.872-1.116-3.815-3.923-3.815L15.293,5.424L15.293,5.424z"/>
</g>
</svg>
