<?xml version="1.0" encoding="utf-8"?>
<!-- Generator: Adobe Illustrator 16.0.0, SVG Export Plug-In . SVG Version: 6.00 Build 0)  -->
<!DOCTYPE svg PUBLIC "-//W3C//DTD SVG 1.0//EN" "http://www.w3.org/TR/2001/REC-SVG-20010904/DTD/svg10.dtd">
<svg version="1.0" id="Layer_1" xmlns="http://www.w3.org/2000/svg" xmlns:xlink="http://www.w3.org/1999/xlink" x="0px" y="0px"
	 width="30px" height="30px" viewBox="0 0 30 30" enable-background="new 0 0 30 30" xml:space="preserve">
<g enable-background="new    ">
	<path fill="none" stroke="#0000FF" stroke-width="0.1" d="M9.462,24.718c0.684,0.036,1.476,0,2.556-0.145
		c1.836-0.216,3.564-0.972,4.896-2.231c1.547-1.439,2.663-3.455,3.096-6.228H19.9c-1.295,1.584-3.168,2.52-5.542,2.52
		c-4.211,0-6.911-3.167-6.911-7.199c0-4.391,3.239-8.279,8.027-8.279c4.788,0,7.739,3.852,7.739,9.862
		c0,5.147-1.729,8.748-4.031,10.979c-1.801,1.728-4.284,2.843-6.804,3.131c-1.152,0.146-2.196,0.216-2.916,0.181V24.718z
		 M15.186,5.568c-2.664,0-4.571,2.375-4.571,5.688c0,2.916,1.764,4.967,4.5,4.967c2.124,0,3.779-1.042,4.644-2.448
		c0.144-0.287,0.252-0.647,0.252-1.151c0.035-4.032-1.477-7.055-4.788-7.055L15.186,5.568L15.186,5.568z"/>
</g>
</svg>
